<?xml version="1.0" encoding="UTF-8"?>
<svg width="1662px" height="1593px" viewBox="0 0 1662 1593" version="1.1" xmlns="http://www.w3.org/2000/svg" xmlns:xlink="http://www.w3.org/1999/xlink">
    <title>Combined Shape</title>
    <g id="Page-1" stroke="none" stroke-width="1" fill="none" fill-rule="evenodd">
        <path d="M824,0 C1108.42665,0 1339,230.573354 1339,515 C1339,663.666112 1276.00697,797.619412 1175.25634,891.624457 L1175.25387,891.608975 C1421.69343,974.66453 1582.77469,1169.28264 1658.49764,1475.4633 C1670.96219,1525.85951 1640.21314,1576.81861 1589.81708,1589.28379 C1582.43215,1591.11041 1574.85279,1592.03378 1567.24531,1592.03366 L94.5371981,1592.03366 C42.6224317,1592.03203 0.538517572,1549.94548 0.54014514,1498.03071 C0.540487766,1487.10193 2.44664686,1476.25693 6.17296488,1465.98305 C107.333074,1187.08353 270.277529,1002.16493 495.007965,911.227841 L495.01673,911.2433 C381.362212,816.776571 309,674.338835 309,515 C309,230.573354 539.573354,0 824,0 Z" id="Combined-Shape" fill="#2B2B2B"></path>
    </g>
</svg>